/* XPM */
static char *player21623073071[] = {
/* columns rows colors chars-per-pixel */
"20 20 121 2 ",
"   c #010100",
".  c #030304",
"X  c #040404",
"o  c #08080B",
"O  c gray4",
"+  c #0A0A0E",
"@  c #0C0C0C",
"#  c #0E0E0E",
"$  c #150B09",
"%  c #100C09",
"&  c #180A08",
"*  c #0E0E11",
"=  c #111118",
"-  c #12131A",
";  c #151518",
":  c #12171E",
">  c #14181E",
",  c gray10",
"<  c #231C16",
"1  c #1A1A25",
"2  c #1C1C27",
"3  c #1D1D27",
"4  c #1F2630",
"5  c #212122",
"6  c #252525",
"7  c #272727",
"8  c #2E2723",
"9  c #20202D",
"0  c #26242C",
"q  c #282828",
"w  c #2F2F2F",
"e  c #362B20",
"r  c #3A2E23",
"t  c #3E3125",
"y  c #242432",
"u  c #252636",
"i  c #272736",
"p  c #2A2730",
"a  c #232B37",
"s  c #242B38",
"d  c #252D39",
"f  c #262F3D",
"g  c #282838",
"h  c #292939",
"j  c #2C2E3E",
"k  c #927E6A",
"l  c gray20",
"z  c #927E6A",
"x  c #927E6A",
"c  c #393430",
"v  c #3C3630",
"b  c gray23",
"n  c #4B231F",
"m  c #54261F",
"M  c #4C2B29",
"N  c #552925",
"B  c #502E28",
"V  c #443A2F",
"C  c #493A29",
"Z  c #4D3B2D",
"A  c #50392C",
"S  c #612620",
"D  c #49423C",
"F  c #2A3341",
"G  c #2E3042",
"H  c #2C3544",
"J  c #323346",
"K  c #343449",
"L  c #35374B",
"P  c #353D4F",
"I  c #38394F",
"U  c #323E50",
"Y  c #393B50",
"T  c #393B51",
"R  c #927E6A",
"E  c gray26",
"W  c #4F4841",
"Q  c #41425B",
"!  c #41435C",
"~  c #42455E",
"^  c #44455F",
"/  c #535353",
"(  c #54545B",
")  c #5A5A5A",
"_  c #5F5F5F",
"`  c #454661",
"'  c #424A61",
"]  c #474863",
"[  c #474964",
"{  c #494D69",
"}  c #445267",
"|  c #46546A",
" . c #48546B",
".. c #4D526E",
"X. c #4B566F",
"o. c #4E5E76",
"O. c #505975",
"+. c #525D79",
"@. c #566070",
"#. c #506078",
"$. c #54637D",
"%. c #73777C",
"&. c #7B7B7B",
"*. c #566680",
"=. c #586783",
"-. c #576983",
";. c #546986",
":. c #5C6B81",
">. c #596C86",
",. c #5A6D88",
"<. c #5D6F8B",
"1. c #5E728E",
"2. c #5F7291",
"3. c #647183",
"4. c #607391",
"5. c #7B8DA5",
"6. c #8D9AAD",
"7. c #CBCCCD",
"8. c #CBD2DB",
"9. c #D8D8D8",
"0. c #FCFDFE",
/* pixels */
"k k V B M k k k k k k k k k k k k k k k ",
"z c A m n 6 6 q q q b ) ) ) / x k k k k ",
"V Z S & . . . . X X _ 0.0.0.9.E z k k k ",
"v Z S & o 9 L I T  .:.5.5.5.6.7.&.k k k ",
"v V N $ + g ~ Q T $.;.| 1.#.3.8.%.6 z k ",
"k k k @ + g ~ J + o.| . 4.a : ;.U X k k ",
"k k k @ + g ~ J o o.} . 4.s > ,.R X k k ",
"k k k @ + g ~ J + o.} . 4.d > ,.R X k k ",
"k k z o * g ! L - #.| X 1.H 4 >.R X z k ",
"k k k o + u ~ ` Q -.} X 2.-.;.1.R . z k ",
"k k k , ; 1 G T [ +.X.j 2.1.>.} d   z z ",
"k k k k 6 . . u [ [ ..1.4.2.#.+ X X w z ",
"k k k k 6 . y 1 . . . . X X @ C D C   6 ",
"k k k k 6 . y 0 < e r r e r t C ( O.  6 ",
"k k k k 6 . u p 8 V W W W W D W +.:.. 6 ",
"k k k k 6 X u g j *.,.1.1.1.3.4.<.>.. 6 ",
"k k k k 6 X y g g T U f f ' O.<.1.>.. 6 ",
"k k k k 6 X y g u y 3 @ . K { =.$.+.+ 7 ",
"k k k k 6 . y h y * @ k . L ` ` s . l k ",
"k k k k w 6 * * * 6 q k 6 ; = = 5 7 k k "
};
