/* XPM */
static char *Screen_Shot_2021_06_07_at_4_52_03_PM_photo_resizer_ru1623074011[] = {
/* columns rows colors chars-per-pixel */
"20 20 119 2 ",
"   c #010102",
".  c gray1",
"X  c #020204",
"o  c #040407",
"O  c #0A0806",
"+  c #060609",
"@  c #090909",
"#  c #08090C",
"$  c #09090D",
"%  c #0C0C0C",
"&  c #0D0C0C",
"*  c #1B0B09",
"=  c #0B0E13",
"-  c #0E0F14",
";  c #111113",
":  c #101016",
">  c gray8",
",  c gray9",
"<  c #1A1510",
"1  c #121219",
"2  c #181818",
"3  c #1D1918",
"4  c #261F17",
"5  c #321613",
"6  c #2F261E",
"7  c #151920",
"8  c #1A1A21",
"9  c #191922",
"0  c #181824",
"q  c #1D1B27",
"w  c #181D24",
"e  c #1A1F27",
"r  c #222222",
"t  c #252525",
"y  c #2D2621",
"u  c #21212E",
"i  c #20212F",
"p  c gray16",
"a  c gray17",
"s  c #2D2D2D",
"d  c #2F2F2F",
"f  c #242531",
"g  c #272737",
"h  c #282736",
"j  c #242B38",
"k  c #242C38",
"l  c #282838",
"z  c #2A2A3A",
"x  c #2E2E3F",
"c  c gray19",
"v  c #927E6A",
"b  c #373130",
"n  c #373431",
"m  c #3B3630",
"M  c #3F3830",
"N  c #3F3F3F",
"B  c #421C17",
"V  c #927E6A",
"C  c #572B25",
"Z  c #5E2823",
"A  c #592924",
"S  c #5A2D25",
"D  c #433628",
"F  c #453729",
"G  c #40302D",
"H  c #46382A",
"J  c #49382D",
"K  c #4A3C2E",
"L  c #573228",
"P  c #52362A",
"I  c #423A31",
"U  c #222E40",
"Y  c #2E3546",
"T  c #35374B",
"R  c #313949",
"E  c #333D4A",
"W  c #323C4C",
"Q  c #393A50",
"!  c #3E3E56",
"~  c #384355",
"^  c #3F4058",
"/  c #394558",
"(  c #3E445A",
")  c #4A4849",
"_  c #514E4C",
"`  c #484B51",
"'  c #404058",
"]  c #44455F",
"[  c gray36",
"{  c #444560",
"}  c #464762",
"|  c #474863",
" . c #4A4E6A",
".. c #435267",
"X. c #445268",
"o. c #46546A",
"O. c #4C5B73",
"+. c #4E5F77",
"@. c #505A75",
"#. c #52627B",
"$. c #6C6C6C",
"%. c #767676",
"&. c #556781",
"*. c #596B86",
"=. c #546C8C",
"-. c #5C6F8B",
";. c #5E718D",
":. c #5F7290",
">. c #5F7390",
",. c #61738E",
"<. c #607291",
"1. c #607391",
"2. c #667892",
"3. c #85898F",
"4. c #A7B0BF",
"5. c gray79",
"6. c #D9E0E7",
"7. c #DEE2E8",
"8. c #F5F6F6",
/* pixels */
"v v n K L Z v v v v v v v v v v c n v v ",
"v M J S B * & & & & & %.5.5.5.5.n b v v ",
"n J P C 5   $ - : : 7 3.7.7.7.6.[ E v v ",
"K S A b 2 + g ! { ] *.,.2.2.2.=.8.$.v v ",
"m G V v 2 + l ^ ! i *.+.W &.#.U 4.` , v ",
"v v v v 2 + l ^ T   *.X.$ +.o.  <.k @ d ",
"v v v v 2 + l ^ T   *.X.@ +.o.  <.k @ d ",
"v v v v 2 + l ' T   *...$ +.X.  :.k @ d ",
"v v v v 2 + l ' Q 1 *...$ +.O.w ;.k @ d ",
"v v v v 2 + l ' | { ;.X.# +.;.;.,.k @ c ",
"v v v v 2   # $ 7 | | @.-.;.;.:.= t s v ",
"v v s 2 9 9 < < 3 l l Y ~ ~ ~ /   r v v ",
"v v p . 0 l y 6 4 O O O O O O O   r v v ",
"v v p . 0 l E I F D D D D D D F   r v v ",
"v v p . 0 l R ) _ _ _ _ _ _ _ _   r v v ",
"v v p . 0 l h #.<.;.<.;.:.;.;.,.  r v v ",
"v v p . 0 l l h q     u | *.;.,.  r v v ",
"v v p . 0 l l 1 ; t . g {  .( e t s v v ",
"v v a & 9 u u > > v ; f Q Q x @ v v v v ",
"v v v c 2   X t c b v 9 o o ; v v v v v "
};
