/* XPM */
static char *e5fa4eb1556f4fa4e7b232ba94253e6dLdOkP8niUSO4lnfH[] = {
/* columns rows colors chars-per-pixel */
"20 20 83 1 ",
"  c #010102",
". c #050507",
"X c #060606",
"o c #09090C",
"O c #0C0C0C",
"+ c #0E0C0C",
"@ c #0E0E0E",
"# c #170A09",
"$ c #0E0E11",
"% c #0C0E12",
"& c #0F0F15",
"* c #111111",
"= c #131313",
"- c #1B1511",
"; c #1A1715",
": c #111218",
"> c #1B1B1B",
", c gray12",
"< c #351A18",
"1 c #2F261D",
"2 c #171B22",
"3 c #181820",
"4 c #1B1920",
"5 c #1A1A25",
"6 c #1C1C27",
"7 c #1D1D29",
"8 c #1F1F2B",
"9 c #1D2024",
"0 c #222223",
"q c gray14",
"w c #272727",
"e c #2A2526",
"r c #26292F",
"t c #2C2C2C",
"y c #927E6A",
"u c #242432",
"i c #232A35",
"p c #292939",
"a c #2C2C3D",
"s c #927E6A",
"d c #927E6A",
"f c #927E6A",
"g c #383130",
"h c #42201A",
"j c #442E2C",
"k c #5B2823",
"l c #542E28",
"z c #4D372C",
"x c #43392F",
"c c #4C3D2E",
"v c #543429",
"b c #2F3444",
"n c #3D3F44",
"m c #343549",
"M c #303848",
"N c #323C4B",
"B c #3B3C53",
"V c #3B4659",
"C c #3C4459",
"Z c #434E5F",
"A c gray32",
"S c #464762",
"D c #474863",
"F c #434F65",
"G c #494C67",
"H c #46556A",
"J c #49536B",
"K c #4B506C",
"L c #565D6B",
"P c #4F5F78",
"I c #596476",
"U c #52637C",
"Y c gray42",
"T c #5C6C85",
"R c #5B6C88",
"E c #5E718E",
"W c #838484",
"Q c #8F9194",
"! c #8E939B",
"~ c #B1B2B2",
"^ c #CBCCCC",
"/ c #C2CAD4",
"( c #D6DBE3",
/* pixels */
"ddxvkgdddddddddddddd",
"fxvh#++OOOW^^^Yddddd",
"fzl< o&::2!(((QAdddd",
"gkj,.uBSGREEEE/~dddd",
"ddd,.uBa%UiiU%VVXtff",
"ddd,.uBa%UiiU%VVXtsf",
"ddd,.uBa%UiiU%VVXtdd",
"ddd,.uBa%UiiU%VV.tdd",
"ddf4.uBZGRiiEEEV.tfd",
"ddfy0$&uDKJPEEN9wsdd",
"dddy0$O>mmVHHHr;wsdd",
"ddd>.u1#      11.tdd",
"ddd9.umCccccccLV.tdd",
"ddy1.uMZIIIIIITV.tdd",
"dds9.ubFEEEEEEEV.ydd",
"dff4.upVEEEEEEEV.ydd",
"ddd,.uppu. 5GREV.rdd",
"ddd,.up7$0+5DJb2wydd",
"dddq#692*y>2mm2>dddd",
"ddddy. :ddd9  1ddddd"
};
