/* XPM */
static char *_7a0bdd92e674998b55af361cae7bec43hPrYw0d2WwoR5Xf[] = {
/* columns rows colors chars-per-pixel */
"20 20 27 1 ",
"  c #323232",
". c #363535",
"X c #373636",
"o c gray23",
"O c #3C3B3B",
"+ c #3E3D3D",
"@ c #403F3F",
"# c #424141",
"$ c #444343",
"% c #474646",
"& c #4A4949",
"* c #4B4A4A",
"= c #4E4D4D",
"- c #4F4E4E",
"; c #535151",
": c #545252",
"> c #565454",
", c #595757",
"< c #5A5857",
"1 c #5E5B5B",
"2 c #625F5F",
"3 c #656261",
"4 c #686464",
"5 c #696565",
"6 c #726D6C",
"7 c #767271",
"8 c #7B7675",
/* pixels */
"222++222222222 >2222",
"666##666666666 26666",
",,,OO,,,,,,,,< =,,,,",
",,,OO,,,,,,,,< =,,,,",
"@@@..@@@#+#+@@ +@@@@",
"====== %========% ==",
"888888 5888888885 88",
"111111 ;11111111; 11",
",,,,,, =,,,,,,,,= ,,",
"&&&&&& $&&&&&&&&$ &&",
"oo oooooooooo oooooo",
"77 3777777772 777777",
"44 ,55445535< 555544",
",, =,<,,,<<<= ,,,<,,",
":: &::::;:::* ;:::::",
"X. .XXXX..XX. ..XXX.",
"32222222> 222222222+",
"666666662 666666666#",
",,,,,,,,= ,,,,,,,,,O",
",,,,,,,,= ,,,,,,,,,O"
};
