/* XPM */
static char *_5e8ce49eddb49c3e4e0e820572446d8J5y0GLYIirBGRYm2[] = {
/* columns rows colors chars-per-pixel */
"20 20 121 2 ",
"   c #233510",
".  c #253414",
"X  c #263912",
"o  c #283518",
"O  c #2B391B",
"+  c #2C3523",
"@  c #2F342A",
"#  c #32352F",
"$  c #313B29",
"%  c #313131",
"&  c #343333",
"*  c #333532",
"=  c #343434",
"-  c #373636",
";  c #363A32",
":  c #363834",
">  c #383B34",
",  c gray22",
"<  c #3B3A3A",
"1  c gray23",
"2  c #3C3B3B",
"3  c #3C3F39",
"4  c #3E3E3E",
"5  c #403F3F",
"6  c #2F4817",
"7  c #2D4118",
"8  c #2E431A",
"9  c #30451B",
"0  c #314A18",
"q  c #334E19",
"w  c #364E1E",
"e  c #36521A",
"r  c #38551B",
"t  c #38521D",
"y  c #3F5E1E",
"u  c #354A20",
"i  c #38412B",
"p  c #3B4D28",
"a  c #3C492F",
"s  c #3C5522",
"d  c #3D5326",
"f  c #3E5724",
"g  c #3E5824",
"h  c #3A4330",
"j  c #3B4630",
"k  c #3F4537",
"l  c #425B27",
"z  c #42572B",
"x  c #435B28",
"c  c #445C2A",
"v  c #43483B",
"b  c #45483D",
"n  c #435432",
"m  c #455733",
"M  c #465734",
"N  c #475D31",
"B  c #485738",
"V  c #4B5A3B",
"C  c #4B5C38",
"Z  c #4D5B3C",
"A  c #505E3E",
"S  c #416320",
"D  c #49642F",
"F  c #49692A",
"G  c #4D6D2E",
"H  c #53782F",
"J  c #4A6036",
"K  c #4F603B",
"L  c #53633E",
"P  c #53693D",
"I  c #527133",
"U  c #414040",
"Y  c #414140",
"T  c #454343",
"R  c #474646",
"E  c #494747",
"W  c #484B43",
"Q  c #494947",
"!  c #494C44",
"~  c #4C4E46",
"^  c #4A4949",
"/  c #4C4B4A",
"(  c #4E4D4D",
")  c #514F4F",
"_  c #4D5742",
"`  c #4C5145",
"'  c #505B44",
"]  c #515648",
"[  c #53564D",
"{  c #54554F",
"}  c #575F4A",
"|  c #545252",
" . c #565753",
".. c #575554",
"X. c #595757",
"o. c #575A51",
"O. c #585854",
"+. c #595B54",
"@. c #5E5F57",
"#. c #5C5A59",
"$. c #5E5B5B",
"%. c #625F5F",
"&. c #556343",
"*. c #566249",
"=. c #5F6653",
"-. c #5F6852",
";. c #606B50",
":. c #6A755B",
">. c #6A705D",
",. c #686464",
"<. c #6C6A65",
"1. c #6D6F64",
"2. c #6D6A69",
"3. c #726D6C",
"4. c #73736B",
"5. c #77766E",
"6. c #78786F",
"7. c #767271",
"8. c #777371",
"9. c #7B7675",
"0. c #797A70",
/* pixels */
"& 1 1 1 : + X r j 2 1 1 1 1 # @ * ; 1 1 ",
"| 7.7.7.Z t r r -.7.7.7.7.=.u . 9 A 7.7.",
"/ ,.,.,.P D _ _ @.,.,.,.,.*.e   6 C ,.,.",
"T X.X.X.Z J *.O.X.X.X.X.X.] n 7 p _ X.X.",
"Y | | | 4 a G [ | | | |  .o.] f Z o.[ | ",
"% - - - - * ; - - - - - N F g r s g d > ",
"E %.%.%.%.%.#.- ( >.%.%.>.:.;.l r y J -.",
") 3.3.3.3.3.,.1 X.2.3.3.3.3.<.V g S H 1.",
"T X.X.X.X.X.| - E X.X.X.X.X.X.X.B x G O.",
"T X.X.X.X.X.| - E X.X.X.X.X.X.X. .! h | ",
"- 4 4 U 4 U 4 - 1 5 5 n M a i n v < = 4 ",
"4 ( ^ @ $ k ( ( ( ( ( } c e 7 Z ] ( ( ( ",
"X.9.1.O 6 &.9.9.9.9.9.9.&.s c 4.9.9.9.9.",
"R #. .o 6 M #.#.$.$.$.$.o.Z g +.$.$.$.$.",
"T X.| w n ] X.X.X.X.X.X.X.~ i O.o.X.X.O.",
"2 E ! s M ' *.^ ^ ^ ^ ^ ^ 5 - R ` ~ b ! ",
"= 2 3 z x D I k 1 - & 1 1 1 2 < p 0 . * ",
"| 7.7.8.5.0.0.7.7.#.1 2.7.7.7.7.Z t q s ",
"/ ,.,.,.,.,.,.,.,.| 1 %.,.,.,.,.+._ _ _ ",
"T X.X.X.X.X.X.O.X.E - |  .X.X.X.+.O.X.X."
};
